<svg version="1.1" id="Layer_1" xmlns="http://www.w3.org/2000/svg" xmlns:xlink="http://www.w3.org/1999/xlink" x="0px" y="0px"
	 width="100%" viewBox="0 0 1024 544" enable-background="new 0 0 1024 544" xml:space="preserve">
<path fill="#000000" opacity="1.000000" stroke="none" 
	d="
M446.524750,313.436157 
	C426.503052,287.680054 427.276733,249.717407 448.164307,224.235275 
	C451.767944,219.838959 455.387177,215.522278 456.322113,209.633484 
	C456.609528,207.823318 456.985199,206.077301 455.938507,203.307755 
	C439.440979,210.253220 423.169159,217.103653 406.397217,224.164642 
	C411.148438,232.537308 417.790619,238.662674 423.157501,246.849579 
	C385.049500,246.849579 347.942566,246.849579 309.483948,246.849579 
	C328.488983,216.198685 346.937958,186.444580 366.046448,155.626831 
	C369.091309,161.849487 371.762177,167.228882 374.355438,172.645401 
	C375.432953,174.896027 376.327393,177.233643 377.335358,179.518341 
	C379.983002,185.519501 380.311249,185.651077 385.824646,181.698013 
	C400.287994,171.328018 412.391541,158.510590 423.818542,144.982880 
	C437.602417,128.665009 451.578430,112.582451 470.625671,101.929016 
	C507.543182,81.280396 555.235413,85.229980 586.232239,119.285599 
	C587.178528,120.325256 588.644836,121.147484 588.262573,124.134041 
	C569.978760,109.716766 549.515686,105.913506 527.849487,111.472389 
	C506.513855,116.946465 490.047089,130.292755 475.281891,147.303207 
	C482.442932,150.187897 489.163025,151.829636 495.881897,153.446732 
	C497.984406,153.952759 499.317261,152.390533 500.556885,151.080276 
	C502.656067,148.861389 504.984558,148.187180 507.707825,149.694122 
	C510.115265,151.026337 511.954559,150.542618 513.941284,148.651474 
	C518.471069,144.339691 523.994934,141.145248 528.603638,136.141006 
	C513.702148,131.908890 500.771515,136.434830 487.979523,142.696991 
	C490.292328,138.193359 494.039948,135.286179 497.752136,132.403580 
	C511.933716,121.391403 527.812012,114.070885 545.924072,114.125366 
	C580.272217,114.228676 605.196533,139.698929 606.443909,173.702347 
	C607.191101,194.070419 600.859253,211.672028 587.968445,227.119873 
	C585.824097,229.689606 585.109985,232.656799 584.163879,235.665878 
	C582.116882,242.177048 579.869080,248.624908 577.794617,255.127731 
	C577.264771,256.788788 576.002014,258.725830 577.692871,260.244598 
	C579.260681,261.652863 581.188416,260.737244 582.888428,260.071198 
	C594.518738,255.514389 606.142334,250.940308 617.752686,246.333054 
	C618.644531,245.979141 619.418396,245.327957 620.906311,244.406876 
	C615.127930,236.979340 609.510376,229.758560 603.005615,221.397430 
	C641.261353,221.397430 678.003357,221.397430 716.520691,221.397430 
	C697.540955,252.253983 679.265381,281.965698 660.521484,312.438812 
	C655.884399,306.085999 654.132996,299.590027 651.347473,293.661072 
	C646.032104,282.347534 646.315491,282.349884 636.539978,290.307159 
	C623.678101,300.776733 613.291809,313.660492 601.802185,325.468292 
	C588.534302,339.103607 573.807861,350.631073 555.564453,356.949615 
	C526.423279,367.042511 498.880005,363.795105 472.957489,346.994507 
	C465.485992,342.152161 458.957764,336.259277 453.047516,329.644470 
	C452.307373,328.816101 451.227081,328.112701 451.927094,325.542114 
	C469.801605,340.594360 490.395477,344.500458 512.268127,339.581818 
	C533.972229,334.701141 550.717590,321.486694 565.729065,304.304413 
	C557.152649,302.277008 549.462585,300.398895 541.737976,298.675751 
	C539.828247,298.249756 538.709961,299.985840 537.667664,301.167603 
	C535.302612,303.849152 532.602661,304.290955 529.613586,302.679932 
	C527.021301,301.282745 525.093140,301.685669 522.962708,303.722656 
	C519.162231,307.356384 514.343506,309.836182 510.147156,314.632385 
	C525.772583,319.436401 539.437012,315.608948 552.481140,308.702698 
	C553.779175,310.310699 552.732361,310.987396 552.099060,311.603790 
	C530.476257,332.648376 499.062286,344.320496 468.901123,330.371277 
	C460.333984,326.409088 452.704224,321.165344 446.524750,313.436157 
M490.860626,169.356003 
	C492.299591,167.968063 493.754669,166.596405 495.174469,165.189148 
	C499.442657,160.958649 498.467438,157.036591 492.687378,155.362671 
	C487.574493,153.881958 482.370392,152.686646 477.328278,151.001221 
	C473.891632,149.852448 471.838287,150.756821 469.716034,153.609238 
	C465.444061,159.351044 460.860382,164.870102 456.240448,170.341873 
	C446.995972,181.290848 446.950134,181.252197 456.260986,191.815903 
	C459.125824,195.066208 462.984558,195.270264 466.191376,192.297012 
	C474.253143,184.822464 482.299591,177.331360 490.860626,169.356003 
M493.709900,258.290955 
	C494.556091,256.552948 496.289978,255.207687 496.139130,253.014954 
	C494.586395,251.486786 492.568726,251.069016 490.696106,250.527634 
	C486.586609,249.339554 486.191101,247.618149 488.837799,244.209595 
	C496.700226,234.084000 507.307007,228.591049 519.434143,225.781158 
	C529.305908,223.493835 538.567810,220.156708 546.288757,213.332870 
	C556.477051,204.328415 562.762756,193.401520 562.953369,179.497849 
	C562.974792,177.940506 563.332947,175.866028 561.043762,175.459366 
	C559.192993,175.130569 557.852234,176.112991 557.203186,177.915131 
	C556.679138,179.370270 555.999390,180.853104 554.362366,181.135559 
	C546.382690,182.512299 546.158752,190.072769 542.399597,194.852112 
	C545.155334,197.498978 548.945557,197.231354 550.785278,199.864578 
	C550.481628,202.316238 548.904663,203.653015 547.645691,205.161270 
	C540.836731,213.318344 531.799683,217.688431 521.709412,220.104782 
	C515.213135,221.660507 508.728546,223.371185 502.855042,226.502365 
	C485.749237,235.621582 475.463226,249.364517 475.062012,269.380707 
	C475.027710,271.091827 474.431183,273.431183 476.766296,274.087860 
	C478.979309,274.710175 479.985565,272.917816 480.685181,271.106842 
	C481.120178,269.980774 481.769348,268.699310 482.936798,268.618469 
	C489.108429,268.191010 490.535004,262.840088 493.709900,258.290955 
M525.762085,256.708191 
	C525.427368,257.246063 524.714050,257.870087 524.813965,258.309021 
	C526.766968,266.889008 528.645081,275.493073 530.929504,283.987061 
	C531.798828,287.219330 537.753235,289.018494 540.601440,287.009766 
	C549.166931,280.968933 557.616089,274.760101 566.020508,268.495819 
	C568.638916,266.544189 568.688171,264.156128 565.618408,262.620392 
	C559.519531,259.569244 553.309448,256.736298 547.092590,253.929840 
	C546.289307,253.567230 545.104370,253.670074 544.213928,253.942307 
	C538.425842,255.711884 532.349854,255.377396 525.762085,256.708191 
M503.721832,254.471588 
	C500.989441,253.469055 498.993195,254.060425 497.540985,256.805237 
	C495.908234,259.891357 493.891296,262.771484 492.158203,265.807861 
	C489.725830,270.069489 491.109894,274.402588 495.502319,276.456726 
	C503.951782,280.408142 512.435791,284.286530 520.857361,288.296265 
	C522.936340,289.286102 524.737183,290.014191 526.814575,288.261139 
	C528.850159,286.543396 528.599915,284.717438 527.986389,282.431335 
	C526.088196,275.358490 524.265015,268.255707 522.759216,261.091705 
	C522.079712,257.859009 520.373901,256.675720 517.345093,256.361206 
	C513.047546,255.914932 508.774933,255.228653 503.721832,254.471588 
M479.258148,200.686111 
	C488.103241,196.157547 497.524780,193.516861 507.386566,192.742508 
	C511.393799,192.427856 512.185913,190.742401 511.361145,187.271179 
	C510.018280,181.619812 508.123444,176.129333 506.958893,170.409866 
	C505.642426,163.944519 501.368195,162.785828 496.578156,167.265579 
	C489.291718,174.080093 482.105560,181.001862 474.872131,187.873154 
	C471.560608,191.018890 468.237976,194.152954 464.818695,197.388535 
	C468.754608,200.227432 474.380005,201.538208 479.258148,200.686111 
M512.290955,162.671143 
	C509.283203,164.181427 508.506256,166.539825 509.390656,169.719467 
	C510.369141,173.237366 511.091888,176.825806 512.040710,180.352661 
	C514.934631,191.109390 514.956177,191.102600 525.730469,192.265610 
	C526.391663,192.336990 527.048584,192.448639 527.708374,192.534088 
	C540.338806,194.170166 540.338440,194.169693 546.333679,182.794708 
	C546.565857,182.354172 546.989380,181.945984 547.041687,181.490356 
	C547.352356,178.783691 547.345703,175.763275 544.485046,174.661163 
	C533.964172,170.607803 523.843750,165.514099 512.290955,162.671143 
M549.583984,297.734283 
	C554.454712,298.819580 559.401672,299.650726 564.169067,301.080566 
	C567.289673,302.016479 569.280334,301.042694 571.166443,298.850433 
	C575.076233,294.306000 579.013123,289.784882 582.933350,285.249420 
	C583.687500,284.376923 584.772217,283.477631 584.025146,282.210205 
	C581.740234,278.333862 579.437744,274.188782 575.819458,271.655701 
	C573.044250,269.712830 569.486633,268.959381 565.854431,271.985931 
	C559.595947,277.200745 552.689819,281.630585 546.195862,286.574219 
	C543.828918,288.376068 539.783386,289.378967 540.570496,293.394196 
	C541.425781,297.757629 545.864502,296.488220 549.583984,297.734283 
M545.087646,171.888611 
	C549.836426,171.847931 547.224182,169.041183 546.523132,167.488464 
	C542.491760,158.559921 538.284851,149.710526 534.116699,140.844055 
	C533.575989,139.693848 533.404236,138.208862 531.336304,137.788879 
	C526.696472,141.607590 521.821045,145.571487 517.000061,149.600510 
	C511.179291,154.465042 511.837891,158.599152 518.976135,161.514771 
	C527.431885,164.968491 535.944641,168.282684 545.087646,171.888611 
M421.349457,206.891296 
	C415.421448,211.634109 409.184387,215.965652 402.939545,219.892883 
	C403.649750,222.381653 404.782776,222.329086 406.232483,221.704498 
	C421.519775,215.118027 436.813782,208.547150 452.112274,201.986755 
	C455.413208,200.571228 456.149506,197.517517 454.849609,195.016098 
	C452.675507,190.832489 449.533051,187.152115 446.422729,182.725601 
	C438.262451,191.440720 430.443939,199.327744 421.349457,206.891296 
M502.848389,282.686646 
	C498.742645,281.417328 495.227661,278.361877 490.011292,278.134430 
	C495.099365,290.340912 500.282257,301.714111 506.353943,313.545013 
	C511.684113,309.294800 516.370789,305.621216 520.986206,301.860291 
	C525.927979,297.833405 525.524048,293.580292 519.786255,290.675781 
	C514.443665,287.971283 508.954773,285.555756 502.848389,282.686646 
M603.953918,263.431061 
	C609.670410,258.735413 615.386902,254.039749 621.103394,249.344086 
	C620.837402,248.961670 620.571411,248.579254 620.305420,248.196854 
	C607.528320,253.248734 594.704712,258.187683 582.005066,263.427307 
	C578.582581,264.839325 577.530029,267.821838 579.714600,271.196533 
	C581.756348,274.350525 583.664429,277.638031 586.782959,280.549225 
	C592.449158,274.889526 597.941528,269.403473 603.953918,263.431061 
M560.622314,163.852173 
	C556.058777,152.505356 548.643738,143.933487 535.971191,138.638199 
	C540.593750,148.561462 545.077393,157.236954 548.656921,166.270706 
	C550.450989,170.798538 554.513916,171.153091 557.688049,172.906097 
	C560.167725,174.275604 562.681335,171.347885 562.027344,168.367493 
	C561.744324,167.077896 561.237488,165.837418 560.622314,163.852173 
M479.527191,289.900665 
	C484.232025,298.814148 490.220093,306.372070 500.270355,310.276306 
	C500.812561,307.452209 499.567505,305.783508 498.766602,304.026001 
	C496.078674,298.127899 493.014099,292.379333 490.695618,286.342346 
	C488.969238,281.847168 486.472473,278.769623 481.810944,277.277832 
	C480.254059,276.779633 479.021057,276.467133 477.609802,277.298279 
	C475.742554,278.398041 476.033447,280.178925 476.481628,281.734283 
	C477.215149,284.279846 478.269958,286.732788 479.527191,289.900665 
M562.414307,247.113205 
	C559.118408,249.082947 554.797668,249.147034 551.553955,252.926086 
	C557.072144,255.496399 562.012451,258.250977 567.276611,260.067078 
	C570.103027,261.042175 573.456604,259.890259 574.616089,256.531494 
	C577.029846,249.539780 579.126953,242.438751 581.834595,233.860748 
	C575.162720,239.338196 569.244446,243.248596 562.414307,247.113205 
M463.565826,204.080032 
	C459.540680,205.655746 458.362183,208.842987 458.230957,213.294159 
	C462.898743,209.962982 467.093567,206.969330 472.008759,203.461548 
	C468.542419,202.106277 466.297638,201.706757 463.565826,204.080032 
z"/>
<path fill="#000000" opacity="1.000000" stroke="none" 
	d="
M357.120300,432.551758 
	C357.105530,447.366364 356.914673,461.857880 357.187103,476.340668 
	C357.281738,481.372101 354.908875,482.048370 350.793610,482.086304 
	C346.609833,482.124878 344.821442,480.848846 344.859100,476.359680 
	C345.036346,455.210632 344.906769,434.059113 345.024078,412.909241 
	C345.036377,410.692200 343.753357,407.145905 347.366028,406.752899 
	C351.028656,406.354431 355.087341,405.032745 357.866943,409.818054 
	C365.975250,423.777130 374.483765,437.504120 382.876190,451.297272 
	C383.891418,452.965759 384.606354,454.902954 386.428406,456.068573 
	C388.931061,455.179230 389.669952,452.806458 390.826324,450.882202 
	C398.973053,437.325928 407.230743,423.830811 415.058594,410.091461 
	C417.668854,405.509918 421.316772,405.802979 425.300873,406.288635 
	C428.013123,406.619293 427.906769,408.970612 427.922577,410.954681 
	C427.978363,417.948822 427.947083,424.943634 427.964294,431.938141 
	C427.999939,446.427032 427.922546,460.917969 428.160187,475.403656 
	C428.233765,479.889496 427.201355,482.145172 422.137115,482.147034 
	C417.268829,482.148834 415.808380,480.344757 415.886414,475.633423 
	C416.104279,462.481384 415.925812,449.322632 415.872681,436.166626 
	C415.867584,434.908234 415.644714,433.650696 415.456207,431.703064 
	C411.986206,434.941071 410.397064,438.601746 408.385315,441.896912 
	C402.920502,450.848175 397.686981,459.940521 392.347229,468.968353 
	C389.051849,474.539795 384.780945,474.707306 381.354156,469.182983 
	C374.159058,457.583740 367.137024,445.877197 360.018005,434.230591 
	C359.338318,433.118652 358.478577,432.116333 357.683258,431.077820 
	C357.660461,431.048065 357.325897,431.156738 357.297150,431.250183 
	C357.200836,431.563049 357.177490,431.898438 357.120300,432.551758 
z"/>
<path fill="#000000" opacity="1.000000" stroke="none" 
	d="
M567.030396,420.986389 
	C577.388855,433.539581 587.520752,445.819489 597.820618,458.303009 
	C600.294922,456.228302 599.623535,453.909912 599.636719,451.927216 
	C599.726440,438.439453 599.961670,424.943390 599.581665,411.466064 
	C599.413818,405.512695 603.028748,406.255127 606.676880,405.971649 
	C610.904724,405.643097 611.506775,407.806885 611.488953,411.447083 
	C611.384949,432.759979 611.527100,454.074005 611.491272,475.387482 
	C611.487549,477.635529 613.079895,480.909851 609.464661,481.696136 
	C606.102844,482.427307 602.558167,482.761993 599.857483,479.428894 
	C594.303345,472.574127 588.550110,465.881104 582.947327,459.065216 
	C575.548035,450.064026 568.219666,441.004517 560.844238,431.983673 
	C560.142761,431.125824 559.601318,429.951050 558.054871,430.159119 
	C556.735840,431.705475 557.303955,433.622833 557.297852,435.366089 
	C557.253052,448.188019 557.282043,461.010284 557.322754,473.832336 
	C557.348083,481.822876 557.293213,481.940582 551.657349,481.943817 
	C545.729065,481.947235 545.650146,481.809235 545.594910,473.626556 
	C545.453308,452.663910 545.287720,431.701416 545.142761,410.738800 
	C545.131409,409.096802 544.825439,406.777405 546.905457,406.621155 
	C550.213074,406.372681 553.965942,405.136414 556.679443,408.355988 
	C560.110779,412.427368 563.434021,416.589905 567.030396,420.986389 
z"/>
<path fill="#000000" opacity="1.000000" stroke="none" 
	d="
M473.060577,407.773010 
	C491.491302,402.299713 509.781799,407.328796 519.744263,421.092102 
	C528.650513,433.396179 529.909668,446.912964 523.538330,460.749634 
	C517.345215,474.199280 506.351776,481.108917 491.777527,482.374634 
	C474.640320,483.862885 460.404816,478.616882 451.427643,463.231171 
	C440.790283,445.000214 446.588654,416.691162 473.060577,407.773010 
M513.936096,434.697571 
	C508.438782,421.914978 499.717712,416.098511 486.049255,416.298462 
	C473.791626,416.477783 465.262451,422.475433 460.400574,433.566254 
	C455.944611,443.731049 458.187653,455.502563 465.698608,463.192474 
	C473.928619,471.618561 486.571655,474.583740 496.920959,470.515137 
	C511.799988,464.665771 518.200745,451.674225 513.936096,434.697571 
z"/>
<path fill="#000000" opacity="1.000000" stroke="none" 
	d="
M315.946533,482.028259 
	C302.459808,482.022095 289.462463,481.909698 276.468445,482.070068 
	C272.151611,482.123352 270.676239,480.565552 270.711609,476.207062 
	C270.884613,454.881500 270.905945,433.552612 270.692108,412.227783 
	C270.646454,407.676727 272.068542,405.978333 276.610657,406.017365 
	C291.271484,406.143311 305.935852,406.123322 320.595642,405.924072 
	C324.783997,405.867188 325.496887,407.705933 325.459961,411.387329 
	C325.421692,415.196747 324.730865,417.299713 320.273254,417.204742 
	C309.781128,416.981262 299.276428,417.310944 288.786438,417.041748 
	C284.101715,416.921509 282.522034,418.707550 282.840332,423.188080 
	C283.075378,426.496460 283.032776,429.874634 282.636749,433.164307 
	C282.201294,436.781525 283.622345,437.980927 287.040192,437.942719 
	C295.869812,437.843994 304.701111,437.897949 313.531738,437.884460 
	C320.828003,437.873322 320.830536,437.869385 320.400604,444.948944 
	C320.350616,445.772369 320.252625,446.592896 320.184052,447.337006 
	C318.527710,448.885345 316.604095,448.287781 314.848419,448.299164 
	C305.851501,448.357574 296.851685,448.442749 287.857758,448.268372 
	C284.145172,448.196381 282.777161,449.622559 282.922699,453.260345 
	C283.095642,457.584106 283.288025,461.965759 282.784729,466.241425 
	C282.282898,470.504974 283.596863,471.805725 287.834686,471.713684 
	C298.826294,471.475006 309.826965,471.688690 320.822815,471.589447 
	C324.446228,471.556763 327.257233,471.513672 327.187988,476.634735 
	C327.123352,481.409821 324.821808,482.287292 320.935028,482.036407 
	C319.441803,481.940002 317.936829,482.025696 315.946533,482.028259 
z"/>
<path fill="#000000" opacity="1.000000" stroke="none" 
	d="
M692.161133,449.884979 
	C697.136047,460.396545 701.959229,470.564575 706.813599,480.798309 
	C697.765564,483.729034 694.129089,482.849243 691.535095,475.057007 
	C688.339294,465.456757 682.880066,461.892181 672.824951,463.164062 
	C665.280090,464.118469 657.515259,463.421661 649.850830,463.300446 
	C646.766846,463.251678 644.861755,464.368134 643.764771,467.317627 
	C642.664307,470.276306 641.236145,473.116333 639.892639,475.980713 
	C636.844910,482.478516 633.446411,483.678253 625.979248,480.923157 
	C625.351196,479.549225 626.021973,478.357208 626.579773,477.158264 
	C636.978882,454.806610 647.497925,432.509491 657.691772,410.064636 
	C659.888916,405.226990 663.608093,406.219177 667.317505,405.992432 
	C670.549316,405.794800 672.349670,406.944305 673.755737,410.101593 
	C679.648499,423.333588 685.893494,436.408783 692.161133,449.884979 
M667.523743,423.323883 
	C666.872131,422.464020 666.727722,421.023254 664.436523,421.300446 
	C660.341797,430.489044 656.085876,439.988800 651.882874,449.511963 
	C651.005493,451.500092 651.758667,452.823395 653.948547,452.953827 
	C662.515381,453.463959 671.093201,454.115112 680.158264,452.405334 
	C676.851074,442.308929 671.917847,433.298004 667.523743,423.323883 
z"/>
<path fill="#000000" opacity="1.000000" stroke="none" 
	d="
M744.054504,462.998352 
	C744.065430,467.995483 743.913391,472.500427 744.121094,476.988739 
	C744.357788,482.104584 740.945007,481.896759 737.491272,482.028870 
	C733.872620,482.167267 731.914734,481.031006 731.939331,476.950104 
	C732.046387,459.126953 731.826294,441.300842 732.056458,423.480103 
	C732.117126,418.779358 730.857971,416.742737 725.924316,417.067963 
	C720.948059,417.395966 715.932739,417.082458 710.937439,417.187775 
	C707.315613,417.264160 705.913269,415.622864 705.895081,412.046631 
	C705.877441,408.586792 706.498657,406.127655 710.655579,406.130615 
	C728.978455,406.143585 747.301270,406.102234 765.624146,406.092407 
	C770.926941,406.089539 769.117126,410.358185 769.619751,413.061005 
	C770.178345,416.064758 768.488098,417.224487 765.552063,417.166534 
	C760.390076,417.064575 755.213013,417.344330 750.064392,417.061310 
	C745.572144,416.814392 743.869812,418.362488 743.957397,423.021149 
	C744.204651,436.176300 744.047974,449.339081 744.054504,462.998352 
z"/>
</svg>