<svg id="svg" version="1.1" viewBox="0 0 300 163.76953125" width="300" height="163.76953125" xmlns="http://www.w3.org/2000/svg"><svg xmlns="http://www.w3.org/2000/svg"><defs><clipPath id="clip-1"><rect x="0" y="0" transform="scale(0.14648,0.14648)" width="2048" height="1118" fill="none"/></clipPath><linearGradient x1="138.77549" y1="66.26426" x2="174.52588" y2="41.96074" gradientUnits="userSpaceOnUse" id="color-1"><stop offset="0" stop-color="#0e2e4c"/><stop offset="1" stop-color="#195479"/></linearGradient><linearGradient x1="131.24678" y1="71.59805" x2="131.07451" y2="26.2938" gradientUnits="userSpaceOnUse" id="color-2"><stop offset="0" stop-color="#0d2a45"/><stop offset="1" stop-color="#185479"/></linearGradient><linearGradient x1="177.10547" y1="99.01494" x2="167.18994" y2="68.17266" gradientUnits="userSpaceOnUse" id="color-3"><stop offset="0" stop-color="#0698ad"/><stop offset="1" stop-color="#14c5bb"/></linearGradient></defs><g clip-path="url(#clip-1)" fill="none" fill-rule="nonzero" stroke="none" stroke-width="1" stroke-linecap="butt" stroke-linejoin="miter" stroke-miterlimit="10" stroke-dasharray="" stroke-dashoffset="0" font-family="none" font-weight="none" font-size="none" text-anchor="none" style="mix-blend-mode: normal"><path d="M0,0h300v163.76953h-300z" fill="#fcfefe"/><path d="M142.33535,41.74189c4.91807,-4.88101 10.36143,-8.38813 17.55234,-8.36895c4.60986,-0.02329 9.03516,1.81274 12.27246,5.09326c6.58008,6.64043 6.42773,17.88647 1.37842,25.36157c-0.74854,1.10625 -1.66406,2.20386 -2.50342,3.24858c-0.71045,2.94023 -1.92334,5.98359 -2.75098,8.93599l-0.38525,-0.20757c-0.58008,0.12188 -1.02539,0.22046 -1.45166,0.68525c0.24463,0.65654 0.21826,1.04736 0.2373,1.75151c-1.51904,1.09585 -7.74463,5.96631 -9.00732,6.46392l-0.12158,-0.16465c-0.26514,-0.06885 -1.89404,-0.71133 -2.38477,-0.87407l-0.21094,0.04219c-0.41309,0.44194 -1.05029,1.08618 -1.65527,1.21245l-0.25049,-0.05742l-0.04395,0.20874c0.62109,0.62783 0.25049,1.32246 0.74414,2.21953l0.14795,0.30425l-5.48145,4.32539c0.10254,0.03984 0.20654,0.07705 0.31201,0.11177c4.76367,1.57603 8.88867,0.38408 13.15576,-1.77861c-4.01367,4.01821 -9.07764,7.11152 -14.82129,7.70742c-5.06016,0.54023 -10.12412,-0.98687 -14.04243,-4.23442c-3.71953,-3.02388 -6.1522,-7.88818 -6.48823,-12.61187c-0.56221,-7.90166 1.81216,-12.12554 6.49702,-17.86729c0.29897,-1.15415 0.57656,-2.33232 0.8606,-3.49204l0.26294,-0.04893c1.07871,-0.09785 1.16572,-0.18794 1.76294,-1.09058l0.07441,-0.25767c-0.00806,-0.44429 -0.16772,-0.67573 -0.37017,-1.06348c0.3936,-0.28535 0.74194,-0.57773 1.09116,-0.91494c2.94316,-2.8418 6.14619,-5.53301 8.95928,-8.50137l-0.06108,-0.18721l0.25503,-0.26836c0.12891,-0.4166 -0.25972,-1.54585 -0.38481,-2.07378l-0.00967,-0.25122c0.47432,-0.35215 1.32642,-1.25757 1.77759,-1.71006c0.97266,0.29956 1.35205,0.45366 2.26172,0.89077c1.44727,-1.3144 2.75098,-2.34287 4.28906,-3.54902l1.47803,-1.27925c-5.14746,-1.18374 -8.46387,-0.47974 -12.94541,2.29014z" fill="#0bacb3"/><path d="M142.33535,41.74189c4.91807,-4.88101 10.36143,-8.38813 17.55234,-8.36895c4.60986,-0.02329 9.03516,1.81274 12.27246,5.09326c6.58008,6.64043 6.42773,17.88647 1.37842,25.36157c-0.74854,1.10625 -1.66406,2.20386 -2.50342,3.24858c-0.71045,2.94023 -1.92334,5.98359 -2.75098,8.93599l-0.38525,-0.20757c-0.58008,0.12188 -1.02539,0.22046 -1.45166,0.68525c0.24463,0.65654 0.21826,1.04736 0.2373,1.75151c-1.51904,1.09585 -7.74463,5.96631 -9.00732,6.46392l-0.12158,-0.16465c-0.26514,-0.06885 -1.89404,-0.71133 -2.38477,-0.87407c-0.53467,-2.22817 -1.86328,-7.11958 -2.13428,-9.09858l-0.30029,0.0624c-0.31934,-0.046 -0.85693,-0.03926 -1.19385,-0.05391c-1.83691,-0.07998 -3.61523,-0.48208 -5.42095,-0.78882c-0.24199,-0.04116 -0.17036,0.0019 -0.39038,0.16143l-0.10166,-0.02988c-0.31758,-0.62769 -2.45698,-1.1915 -3.2729,-1.47085c1.90342,-2.76211 5.06528,-5.40659 8.32017,-6.02607c6.59766,-1.25537 12.23145,-4.71138 13.89697,-11.60361c0.19922,-0.82397 0.479,-3.34995 0.20215,-4.12603c-0.37646,-0.20244 -0.34424,-0.11499 -0.85107,0.01465l-0.11133,-0.1311c-1.07959,0.32974 -0.94336,0.08013 -1.95703,-0.37705c-1.00635,-0.45396 -0.91113,-0.0561 -1.3374,-1.13862l-0.16113,0.07148c-1.35791,-2.54414 -3.25928,-6.56748 -4.32568,-9.26338c-0.82764,-0.38789 -1.44434,0.50112 -2.14307,1.07637l-0.08643,-0.21416l1.47803,-1.27925c-5.14746,-1.18374 -8.46387,-0.47974 -12.94541,2.29014z" fill="url(#color-1)"/><path d="M159.9082,73.68721l0.24023,-0.17153c1.53662,0.85239 4.62598,2.26494 6.29883,2.97437c0.24463,0.65654 0.21826,1.04736 0.2373,1.75151c-1.51904,1.09585 -7.74463,5.96631 -9.00732,6.46392l-0.12158,-0.16465c-0.26514,-0.06885 -1.89404,-0.71133 -2.38477,-0.87407c-0.53467,-2.22817 -1.86328,-7.11958 -2.13428,-9.09858c2.44336,0.08818 4.50732,-0.38774 6.87158,-0.88096z" fill="#fcfefe"/><path d="M159.9082,73.68721l0.24023,-0.17153c1.53662,0.85239 4.62598,2.26494 6.29883,2.97437c0.24463,0.65654 0.21826,1.04736 0.2373,1.75151c-1.51904,1.09585 -7.74463,5.96631 -9.00732,6.46392l-0.12158,-0.16465c1.5,-1.07153 7.87793,-5.38257 8.61182,-6.3769c0.19775,-0.26646 0.24463,-0.6312 0.15234,-0.95186c-0.2915,-1.01484 -5.21924,-2.82173 -6.41162,-3.52485z" fill="#61878b"/><path d="M156.03223,39.8688l0.17725,-0.09917c3.6709,1.40962 6.27246,3.93545 7.83252,7.52681c0.34131,0.78252 0.80859,1.90327 0.57861,2.775c-0.06885,0.26338 -0.55518,0.4147 -0.80713,0.50493c-1.07959,0.32974 -0.94336,0.08013 -1.95703,-0.37705c-1.00635,-0.45396 -0.91113,-0.0561 -1.3374,-1.13862l-0.16113,0.07148c-1.35791,-2.54414 -3.25928,-6.56748 -4.32568,-9.26338z" fill="#fcfefe"/><path d="M156.03223,39.8688l0.17725,-0.09917l4.30957,9.29106l-0.16113,0.07148c-1.35791,-2.54414 -3.25928,-6.56748 -4.32568,-9.26338z" fill="#4a4b4c"/><path d="M170.63086,67.39775l0.4043,-0.32139c-0.71045,2.94023 -1.92334,5.98359 -2.75098,8.93599l-0.38525,-0.20757c-0.58008,0.12188 -1.02539,0.22046 -1.45166,0.68525c-1.67285,-0.70942 -4.76221,-2.12197 -6.29883,-2.97437c3.97119,-1.03711 7.47803,-3.40005 10.48242,-6.11792z" fill="#fcfefe"/><path d="M170.63086,67.39775l0.4043,-0.32139c-0.71045,2.94023 -1.92334,5.98359 -2.75098,8.93599l-0.38525,-0.20757c0.37939,-0.47622 2.67041,-7.72603 2.73193,-8.40703z" fill="#61878b"/><path d="M153.88916,40.94517c0.69873,-0.57524 1.31543,-1.46426 2.14307,-1.07637c1.06641,2.6959 2.96777,6.71924 4.32568,9.26338c0.12012,0.43418 0.27246,0.81504 0.13916,1.24556c-0.29883,0.28125 -0.15967,0.22852 -0.53027,0.26865l-0.07178,0.14634c0.11279,0.17827 0.47607,1.54541 0.4292,1.75547c-0.35303,1.59053 -1.81641,2.93701 -2.44775,4.3897c-0.34717,0.08394 -0.94482,-0.08306 -1.30664,-0.16289c-2.07568,-0.45952 -4.06348,-0.5335 -6.18164,-0.59312l-0.2959,0.02344c-0.46729,-2.54312 -1.41211,-5.07803 -1.80176,-7.62993c-0.35156,-0.72319 -1.86079,-1.08618 -2.61563,-0.69551l-0.06108,-0.18721l0.25503,-0.26836c0.12891,-0.4166 -0.25972,-1.54585 -0.38481,-2.07378l-0.00967,-0.25122c0.47432,-0.35215 1.32642,-1.25757 1.77759,-1.71006c0.97266,0.29956 1.35205,0.45366 2.26172,0.89077c1.44727,-1.3144 2.75098,-2.34287 4.28906,-3.54902z" fill="#fcfefe"/><path d="M153.88916,40.94517c0.69873,-0.57524 1.31543,-1.46426 2.14307,-1.07637c1.06641,2.6959 2.96777,6.71924 4.32568,9.26338c0.12012,0.43418 0.27246,0.81504 0.13916,1.24556c-0.29883,0.28125 -0.15967,0.22852 -0.53027,0.26865c-1.27295,-0.73872 -8.08887,-3.32944 -9.59766,-3.86733l-0.10986,0.09111c-0.73682,0.05889 -1.6377,0.95625 -1.76221,1.68384l-0.20654,0.02139c-0.35156,-0.72319 -1.86079,-1.08618 -2.61563,-0.69551l-0.06108,-0.18721l0.25503,-0.26836c0.12891,-0.4166 -0.25972,-1.54585 -0.38481,-2.07378l-0.00967,-0.25122c0.47432,-0.35215 1.32642,-1.25757 1.77759,-1.71006c0.97266,0.29956 1.35205,0.45366 2.26172,0.89077c1.44727,-1.3144 2.75098,-2.34287 4.28906,-3.54902z" fill="#fcfefe"/><path d="M153.80273,40.73101l0.08643,0.21416c-1.03711,0.84976 -3.29443,2.60068 -4.15576,3.46304c0.11426,0.59106 0.30029,1.95513 0.63574,2.37085l-0.10986,0.09111c-0.73682,0.05889 -1.6377,0.95625 -1.76221,1.68384l-0.20654,0.02139c-0.35156,-0.72319 -1.86079,-1.08618 -2.61563,-0.69551l-0.06108,-0.18721l0.25503,-0.26836c0.12891,-0.4166 -0.25972,-1.54585 -0.38481,-2.07378l-0.00967,-0.25122c0.47432,-0.35215 1.32642,-1.25757 1.77759,-1.71006c0.97266,0.29956 1.35205,0.45366 2.26172,0.89077c1.44727,-1.3144 2.75098,-2.34287 4.28906,-3.54902z" fill="#135072"/><path d="M150.36914,46.77905c1.50879,0.53789 8.32471,3.12861 9.59766,3.86733l-0.07178,0.14634c-1.67139,-0.59854 -8.33496,-3.1522 -9.63574,-3.92256z" fill="#4a4b4c"/><path d="M148.29053,48.57539l0.20654,-0.02139c0.71338,2.16211 1.26416,5.33145 1.89111,7.62788l-0.2959,0.02344c-0.46729,-2.54312 -1.41211,-5.07803 -1.80176,-7.62993z" fill="#4a4b4c"/><path d="M160.35791,49.13218l0.16113,-0.07148c0.42627,1.08252 0.33105,0.68467 1.3374,1.13862c1.01367,0.45718 0.87744,0.70679 1.95703,0.37705l0.11133,0.1311c0.50684,-0.12964 0.47461,-0.21709 0.85107,-0.01465c0.27686,0.77607 -0.00293,3.30205 -0.20215,4.12603c-1.66553,6.89224 -7.29932,10.34824 -13.89697,11.60361c-3.25488,0.61948 -6.41675,3.26396 -8.32017,6.02607c0.81592,0.27935 2.95532,0.84316 3.2729,1.47085l0.10166,0.02988c-0.72935,1.35117 -1.90957,3.34438 -2.76372,4.63726c0.49512,0.61069 0.58081,0.8751 0.52764,1.70742l0.09785,0.12319l0.02578,0.23188c-0.4894,-0.00659 -0.35757,-0.07251 -0.72451,0.15205c-0.05962,0.06035 -0.28433,0.30015 -0.33911,0.32622c-0.10371,0.01113 -0.20771,0.01992 -0.31187,0.02637c-0.84023,0.04805 -1.04106,-0.20347 -1.66304,-0.75776c-0.58125,0.1355 -1.14185,0.24463 -1.72808,0.35669l-0.04717,-0.16802c-1.40537,-4.83853 2.63921,-11.89995 6.95508,-14.12271c6.63794,-3.4188 10.38354,-1.88218 15.38745,-8.22202c-1.01953,-0.43813 -2.16064,-0.68848 -3.15674,-1.17788l-0.11426,-0.12407c0.63135,-1.45269 2.09473,-2.79917 2.44775,-4.3897c0.04688,-0.21006 -0.31641,-1.5772 -0.4292,-1.75547l0.07178,-0.14634c0.37061,-0.04014 0.23145,0.0126 0.53027,-0.26865c0.1333,-0.43052 -0.01904,-0.81138 -0.13916,-1.24556z" fill="#fcfefe"/><path d="M145.62949,73.91938l0.10166,0.02988c-0.72935,1.35117 -1.90957,3.34438 -2.76372,4.63726c0.49512,0.61069 0.58081,0.8751 0.52764,1.70742l0.09785,0.12319l0.02578,0.23188c-0.4894,-0.00659 -0.35757,-0.07251 -0.72451,0.15205c-0.05962,0.06035 -0.28433,0.30015 -0.33911,0.32622c-0.10371,0.01113 -0.20771,0.01992 -0.31187,0.02637c-0.84023,0.04805 -1.04106,-0.20347 -1.66304,-0.75776c-0.58125,0.1355 -1.14185,0.24463 -1.72808,0.35669l-0.04717,-0.16802c0.27026,-0.05259 0.53965,-0.10972 0.80801,-0.17139c0.85488,-0.20376 0.56265,-0.47065 1.05396,-1.29844c0.2915,-0.82764 1.81055,-0.69067 1.94824,-0.80376c0.87422,-0.71821 2.40264,-3.50464 3.01436,-4.3916z" fill="#0bacb3"/><path d="M160.35791,49.13218l0.16113,-0.07148c0.42627,1.08252 0.33105,0.68467 1.3374,1.13862c1.01367,0.45718 0.87744,0.70679 1.95703,0.37705l0.11133,0.1311c-2.23975,0.92388 -0.40283,2.02427 -3.07617,1.89917c-0.73828,1.14463 -2.09619,3.43887 -2.85791,4.45532l-0.11426,-0.12407c0.63135,-1.45269 2.09473,-2.79917 2.44775,-4.3897c0.04688,-0.21006 -0.31641,-1.5772 -0.4292,-1.75547l0.07178,-0.14634c0.37061,-0.04014 0.23145,0.0126 0.53027,-0.26865c0.1333,-0.43052 -0.01904,-0.81138 -0.13916,-1.24556z" fill="#135072"/><path d="M145.73115,73.94927c0.22002,-0.15952 0.14839,-0.20259 0.39038,-0.16143c1.80571,0.30674 3.58403,0.70884 5.42095,0.78882c0.33691,0.01465 0.87451,0.00791 1.19385,0.05391l0.30029,-0.0624c0.271,1.979 1.59961,6.87041 2.13428,9.09858l-0.21094,0.04219c-0.41309,0.44194 -1.05029,1.08618 -1.65527,1.21245l-0.25049,-0.05742l-0.04395,0.20874c-2.87256,-1.42002 -6.71836,-2.94082 -9.39155,-4.42368l-0.02578,-0.23188l-0.09785,-0.12319c0.05317,-0.83232 -0.03252,-1.09673 -0.52764,-1.70742c0.85415,-1.29287 2.03437,-3.28608 2.76372,-4.63726z" fill="#fcfefe"/><path d="M143.59292,80.41714c2.46753,1.10347 7.29331,3.14897 9.46128,4.44683l-0.04395,0.20874c-2.87256,-1.42002 -6.71836,-2.94082 -9.39155,-4.42368z" fill="#61878b"/><path d="M152.73633,74.63057l0.30029,-0.0624c0.271,1.979 1.59961,6.87041 2.13428,9.09858l-0.21094,0.04219c-0.74707,-2.19785 -1.64795,-6.63267 -2.22363,-9.07837z" fill="#3c767b"/><path d="M145.6749,47.87988c0.75483,-0.39067 2.26406,-0.02769 2.61563,0.69551c0.38965,2.5519 1.33447,5.08682 1.80176,7.62993c-2.67041,0.25137 -4.57412,0.46743 -7.15371,1.38662c-0.96299,0.34307 -3.02065,1.27837 -3.86294,1.47891l-0.22031,0.04746c-0.97734,-0.17285 -1.95571,-0.33984 -2.93511,-0.50098l0.07441,-0.25767c-0.00806,-0.44429 -0.16772,-0.67573 -0.37017,-1.06348c0.3936,-0.28535 0.74194,-0.57773 1.09116,-0.91494c2.94316,-2.8418 6.14619,-5.53301 8.95928,-8.50137z" fill="#fcfefe"/><path d="M135.99463,58.35967c0.76919,0.10503 2.55806,0.23291 3.08101,0.71118l-0.22031,0.04746c-0.97734,-0.17285 -1.95571,-0.33984 -2.93511,-0.50098z" fill="#4a4b4c"/><path d="M142.89419,80.80107c0.36694,-0.22456 0.23511,-0.15864 0.72451,-0.15205c2.67319,1.48286 6.51899,3.00366 9.39155,4.42368c0.62109,0.62783 0.25049,1.32246 0.74414,2.21953l0.14795,0.30425l-5.48145,4.32539l-0.11133,-0.15176c-0.4585,-0.02036 -0.32959,-0.02886 -0.77051,-0.36504l-0.25195,0.04614c-0.40283,-0.99888 -4.44829,-9.98584 -4.73203,-10.32393c0.05479,-0.02607 0.27949,-0.26587 0.33911,-0.32622z" fill="#fcfefe"/><path d="M142.55508,81.12729c0.05479,-0.02607 0.27949,-0.26587 0.33911,-0.32622c0.69404,2.75977 3.61948,7.62759 4.64487,10.604l-0.25195,0.04614c-0.40283,-0.99888 -4.44829,-9.98584 -4.73203,-10.32393z" fill="#61878b"/><path d="M153.75439,87.29224l0.14795,0.30425l-5.48145,4.32539l-0.11133,-0.15176c1.56738,-1.48447 3.73389,-2.87783 5.44482,-4.47788z" fill="#61878b"/><path d="M140.58018,80.3959c0.62197,0.5543 0.8228,0.80581 1.66304,0.75776c0.10415,-0.00645 0.20815,-0.01523 0.31187,-0.02637c0.28374,0.33809 4.3292,9.32505 4.73203,10.32393c-3.99668,-1.31895 -8.42798,-6.40635 -8.43501,-10.69863c0.58623,-0.11206 1.14683,-0.22119 1.72808,-0.35669z" fill="#fcfefe"/><path d="M135.92021,58.61733c0.97939,0.16113 1.95776,0.32813 2.93511,0.50098c-2.26685,1.43218 -3.45337,2.47588 -5.47573,3.89941l-0.34585,0.23115c0.29897,-1.15415 0.57656,-2.33232 0.8606,-3.49204l0.26294,-0.04893c1.07871,-0.09785 1.16572,-0.18794 1.76294,-1.09058z" fill="#fcfefe"/><path d="M133.89434,59.75684l0.26294,-0.04893c-0.24771,1.08413 -0.49248,2.2418 -0.77769,3.30981l-0.34585,0.23115c0.29897,-1.15415 0.57656,-2.33232 0.8606,-3.49204z" fill="#4a4b4c"/><path d="M111.00718,54.41997c3.52749,-2.31592 8.20459,-6.37896 10.86812,-9.62168c8.40205,-10.22915 17.2248,-19.77568 31.76484,-18.69653c7.67432,0.56953 13.6582,4.0292 18.73242,9.93545c-0.31494,-0.25781 -0.63867,-0.50376 -0.97119,-0.7374c-10.55713,-7.36582 -22.29785,-3.36357 -30.66167,5.25615c-0.72319,0.74517 -1.66333,1.6106 -2.2459,2.44688l0.16465,0.23525c1.19194,0.27539 5.6978,1.43394 6.81592,1.86123l0.00967,0.25122c0.1251,0.52793 0.51372,1.65718 0.38481,2.07378l-0.25503,0.26836l0.06108,0.18721c-2.81309,2.96836 -6.01611,5.65957 -8.95928,8.50137c-0.34922,0.33721 -0.69756,0.62959 -1.09116,0.91494l-0.16641,-0.15601c-0.73945,-0.42319 -0.97544,-0.44106 -1.75708,-0.11953l-0.10283,0.04292c-0.38965,0.94409 -0.3375,1.6314 -1.03887,1.97783l0.16875,0.13198c-4.26826,2.12124 -9.80259,4.08193 -14.279,6.12612c0.0375,0.59692 4.33726,5.81191 5.01709,6.63149l-32.73882,0.01655c1.47378,-2.72563 3.90806,-6.40737 5.57842,-9.09697l10.66904,-17.22759c1.3084,2.86772 2.67803,5.98257 4.03242,8.79697z" fill="url(#color-2)"/><path d="M138.65845,43.23809c1.19194,0.27539 5.6978,1.43394 6.81592,1.86123l0.00967,0.25122c0.1251,0.52793 0.51372,1.65718 0.38481,2.07378l-0.25503,0.26836l0.06108,0.18721c-2.81309,2.96836 -6.01611,5.65957 -8.95928,8.50137c-0.34922,0.33721 -0.69756,0.62959 -1.09116,0.91494l-0.16641,-0.15601c-0.73945,-0.42319 -0.97544,-0.44106 -1.75708,-0.11953l-0.10283,0.04292c-0.84258,-1.10405 -2.50342,-3.24126 -2.98901,-4.45415c1.43027,-2.04785 5.78247,-6.82251 7.46807,-9.14575c0.1667,-0.0416 0.31055,-0.07749 0.43169,-0.10767z" fill="#fcfefe"/><path d="M135.45806,57.14019c2.09297,-1.54966 5.41348,-5.27856 7.53076,-7.07124c0.86924,-0.73594 1.62876,-1.70273 2.625,-2.37627l0.06108,0.18721c-2.81309,2.96836 -6.01611,5.65957 -8.95928,8.50137c-0.34922,0.33721 -0.69756,0.62959 -1.09116,0.91494z" fill="#4a4b4c"/><path d="M138.65845,43.23809c1.19194,0.27539 5.6978,1.43394 6.81592,1.86123l0.00967,0.25122c-2.35562,-0.60015 -4.67417,-1.20645 -6.97515,-1.99453z" fill="#4a4b4c"/><path d="M130.60913,52.60942c0.69243,0.81489 2.72227,3.47593 3.09185,4.41123l-0.10283,0.04292c-0.84258,-1.10405 -2.50342,-3.24126 -2.98901,-4.45415z" fill="#4a4b4c"/><path d="M130.60913,52.60942c0.4856,1.21289 2.14644,3.3501 2.98901,4.45415c-0.38965,0.94409 -0.3375,1.6314 -1.03887,1.97783l0.16875,0.13198c-4.26826,2.12124 -9.80259,4.08193 -14.279,6.12612l-0.11675,-0.09829c-0.47197,-0.20874 -0.75249,-0.60249 -1.10537,-0.99639c0.43389,-0.29751 0.91758,-0.59312 1.36509,-0.87261c4.64121,-2.89819 8.43794,-6.64409 12.01714,-10.7228z" fill="#fcfefe"/><path d="M132.55928,59.04141l0.16875,0.13198c-4.26826,2.12124 -9.80259,4.08193 -14.279,6.12612l-0.11675,-0.09829c0.89971,-0.65801 4.81406,-2.26758 6.05449,-2.77017c2.60962,-1.05747 5.5541,-2.42622 8.17251,-3.38965z" fill="#4a4b4c"/><path d="M176.66455,64.62642l20.04346,-0.0293c4.12061,0.00015 8.47705,-0.0646 12.57861,0.04526c-0.74414,1.50264 -1.70801,2.86904 -2.57812,4.29727c-4.48389,7.36157 -9.18018,14.65239 -13.58203,22.06201c-1.06641,-2.38535 -2.74951,-6.44253 -4.02246,-8.64536c-4.94678,3.19424 -8.8667,7.85757 -12.84814,12.11572c-7.61719,8.14468 -17.41113,13.03462 -28.70361,10.6459c-3.9019,-0.825 -10.44067,-3.92051 -12.98877,-6.98745c0.05068,-0.50933 -0.34292,-0.24712 -0.19395,-1.15605c11.05884,6.81987 24.16025,1.11211 31.61777,-8.27271c-0.80273,-0.30674 -7.11182,-1.61851 -8.1123,-1.77715l0.15381,-0.29341c-0.12598,-0.52104 -0.39111,-1.42778 -0.35156,-1.92568c1.2627,-0.49761 7.48828,-5.36807 9.00732,-6.46392c-0.01904,-0.70415 0.00732,-1.09497 -0.2373,-1.75151c0.42627,-0.46479 0.87158,-0.56338 1.45166,-0.68525l0.38525,0.20757c0.58887,0.30527 0.42334,0.22954 0.82324,0.84185c0.55957,-0.41118 3.09814,-1.39087 3.88477,-1.69893c3.07031,-1.20161 6.09668,-2.32881 9.14355,-3.60688c-1.60693,-2.13252 -4.06641,-4.89038 -5.47119,-6.92197z" fill="url(#color-3)"/><path d="M169.10742,76.8542c0.55957,-0.41118 3.09814,-1.39087 3.88477,-1.69893c3.07031,-1.20161 6.09668,-2.32881 9.14355,-3.60688l0.13623,0.23481l0.31201,0.42627c-0.2168,0.87349 -2.01709,1.72134 -2.72607,2.29175c-2.46094,1.97651 -4.76807,4.12017 -6.93311,6.41631c-0.5332,0.56455 -1.11475,1.09292 -1.66553,1.63916c-0.96094,1.34062 -3.94336,4.96011 -5.09473,5.8812l-0.17725,0.26382c-0.80273,-0.30674 -7.11182,-1.61851 -8.1123,-1.77715l0.15381,-0.29341c-0.12598,-0.52104 -0.39111,-1.42778 -0.35156,-1.92568c1.2627,-0.49761 7.48828,-5.36807 9.00732,-6.46392c-0.01904,-0.70415 0.00732,-1.09497 -0.2373,-1.75151c0.42627,-0.46479 0.87158,-0.56338 1.45166,-0.68525l0.38525,0.20757c0.58887,0.30527 0.42334,0.22954 0.82324,0.84185z" fill="#fcfefe"/><path d="M166.44727,76.49004c0.42627,-0.46479 0.87158,-0.56338 1.45166,-0.68525l0.38525,0.20757c0.58887,0.30527 0.42334,0.22954 0.82324,0.84185l0.14502,0.10591c-0.12744,0.50698 -0.23437,1.13481 -0.53467,1.53809l-0.14062,0.14751c-0.89355,0.14414 -1.11182,-0.00308 -1.89258,-0.40415c-0.01904,-0.70415 0.00732,-1.09497 -0.2373,-1.75151z" fill="#0bacb3"/><path d="M169.10742,76.8542c0.55957,-0.41118 3.09814,-1.39087 3.88477,-1.69893c3.07031,-1.20161 6.09668,-2.32881 9.14355,-3.60688l0.13623,0.23481c-4.30225,1.80015 -8.7627,3.36548 -13.01953,5.1769z" fill="#61878b"/><path d="M158.02881,86.63115c2.28662,0.38232 5.8374,1.23853 8.13574,1.80674l-0.17725,0.26382c-0.80273,-0.30674 -7.11182,-1.61851 -8.1123,-1.77715z" fill="#61878b"/><path d="M168.57715,78.6457l0.14063,-0.14751c0.59766,0.84067 1.33447,1.80088 1.77246,2.71641c-0.63721,-0.65771 -1.49414,-1.75122 -1.91309,-2.5689z" fill="#3c767b"/><path d="M140.43413,118.56167c6.26265,-1.06685 12.19673,3.17065 13.21919,9.44062c1.02246,6.27012 -3.25635,12.17358 -9.5335,13.15239c-6.21504,0.96914 -12.04761,-3.2584 -13.0604,-9.46655c-1.01279,-6.20815 3.17388,-12.07017 9.37471,-13.12646z" fill="#102b3e"/><path d="M141.08525,121.38706c4.64868,-0.69331 8.98213,2.50605 9.68672,7.15283c0.70605,4.64678 -2.48145,8.98813 -7.1269,9.70576c-4.66216,0.72041 -9.02314,-2.48203 -9.73125,-7.14595c-0.70825,-4.66406 2.50562,-9.0167 7.17144,-9.71265z" fill="#fcfefe"/><path d="M122.10132,118.94458l2.76387,0.0019c0.08101,2.31035 0.00908,5.07964 0.01172,7.42515l0.03311,14.31797c-1.02583,0.01201 -2.08096,-0.00352 -3.10957,-0.00586c-0.12041,-3.40356 -0.01655,-7.51099 -0.00732,-10.96436l-0.07002,-5.17427c-1.34897,2.6124 -3.09844,5.41436 -4.58438,7.97886c-0.81445,1.40596 -2.35957,4.20483 -3.25181,5.33936c-0.39668,0.19951 -0.91816,0.24917 -1.35205,0.14004c-0.79878,-0.20083 -7.64121,-12.00732 -8.49595,-13.43584l0.06255,16.11226c-1.01499,0.02593 -2.09004,0.00747 -3.1106,0.00557c0.00557,-7.15562 -0.09199,-14.57944 0.02769,-21.71602l2.74731,-0.02256c2.88999,4.76807 6.56836,10.39966 9.16934,15.28755c1.08779,-1.52578 2.47178,-3.99829 3.46523,-5.66558c1.9166,-3.19849 3.8168,-6.40649 5.70088,-9.62417z" fill="#102b3e"/><path d="M193.0752,118.9396l3.35596,-0.01157c0.87744,2.15581 2.19873,4.80952 3.19629,6.94878l6.97852,14.79067c-1.09131,0.02783 -2.23828,0.01655 -3.33398,0.02373c-0.84375,-1.81494 -1.66553,-3.63926 -2.46826,-5.47266l-4.21875,-0.00776l-7.91895,0.00073c-0.69141,1.80366 -1.59814,3.65391 -2.34229,5.48086l-3.28125,0.0022c0.82178,-2.16372 2.48145,-5.48247 3.49365,-7.6585z" fill="#102b3e"/><path d="M194.69824,121.97886c1.53955,2.9127 3.51563,7.63506 4.85156,10.70815l-4.90869,0.00483l-4.7915,0.02754c1.31689,-2.93027 3.39697,-8.14805 4.84863,-10.74053z" fill="#fcfefe"/><path d="M175.63037,118.94897l3.09668,0.00425c-0.00293,7.03711 0.14941,14.74995 -0.02783,21.73564l-2.52539,0.00264c-4.51025,-5.40352 -8.98096,-10.83955 -13.41211,-16.30781c-0.05859,5.41348 -0.01465,10.88833 -0.01025,16.30635l-3.00146,0.00864c-0.11719,-2.31885 -0.04687,-5.17954 -0.05127,-7.53179l0.00146,-14.21382l2.53711,0.00996c0.73682,1.07886 2.95605,3.6189 3.91406,4.79517c3.11426,3.82383 6.25488,7.6248 9.4248,11.40278c0.18018,-5.11113 0.05127,-11.03774 0.0542,-16.21201z" fill="#102b3e"/><path d="M79.24995,118.94312l15.53481,0.00557l-0.00352,2.73237c-4.10566,0.06636 -8.37378,0.00835 -12.49248,0.00981c0.01245,2.17529 0.01392,4.35073 0.00454,6.52617l11.15918,-0.00103l0.02505,2.63262l-10.70698,0.02227l-0.27129,0.05083c-0.35024,0.41865 -0.196,6.06724 -0.19087,7.0585l12.99756,-0.00308l-0.00073,2.72007l-16.0522,-0.00806z" fill="#102b3e"/><path d="M206.78174,118.95513c6.01758,-0.08774 12.22852,-0.01025 18.26221,-0.01216l0.00879,2.75156l-7.62598,-0.00732c0.03516,3.80698 0.04102,7.61426 0.02051,11.42124c-0.02783,2.49946 0.01904,5.0707 0.03662,7.57559c-1.01514,0.02271 -2.08154,0.00557 -3.10107,0.0041c-0.14795,-6.07368 -0.08643,-12.90483 -0.00586,-18.99258c-2.52539,0.00688 -5.05078,-0.00337 -7.57617,-0.03047z" fill="#102b3e"/><path d="M155.1709,83.66675c0.49072,0.16274 2.11963,0.80522 2.38477,0.87407l0.12158,0.16465c-0.03955,0.4979 0.22559,1.40464 0.35156,1.92568l-0.15381,0.29341c-0.61377,0.67617 -1.05762,1.08911 -1.72852,1.69263c-0.80273,-0.29414 -1.54687,-0.52046 -2.24414,-1.0207l-0.14795,-0.30425c-0.49365,-0.89707 -0.12305,-1.5917 -0.74414,-2.21953l0.04395,-0.20874l0.25049,0.05742c0.60498,-0.12627 1.24219,-0.77051 1.65527,-1.21245z" fill="#0bacb3"/><path d="M133.70098,57.02065c0.78164,-0.32153 1.01763,-0.30366 1.75708,0.11953l0.16641,0.15601c0.20244,0.38774 0.36211,0.61919 0.37017,1.06348l-0.07441,0.25767c-0.59722,0.90264 -0.68423,0.99272 -1.76294,1.09058l-0.26294,0.04893l-0.35581,-0.55195c-0.41118,-0.21445 -0.22588,-0.17183 -0.8105,-0.03149l-0.16875,-0.13198c0.70137,-0.34644 0.64922,-1.03374 1.03887,-1.97783z" fill="#102b3e"/><path d="M131.9291,95.31841l2.44043,1.65601c-0.14897,0.90894 0.24463,0.64673 0.19395,1.15605c-0.90044,-0.81255 -1.81685,-1.89346 -2.63437,-2.81206z" fill="#3c767b"/></g></svg></svg>